<?xml version="1.0" encoding="UTF-8"?>
<svg id="Layer_1" data-name="Layer 1" xmlns="http://www.w3.org/2000/svg" xmlns:xlink="http://www.w3.org/1999/xlink" viewBox="0 0 434.16 432">
  <defs>
    <style>
      .cls-1 {
        filter: url(#drop-shadow-39);
      }

      .cls-2 {
        fill: url(#linear-gradient);
      }
    </style>
    <filter id="drop-shadow-39" filterUnits="userSpaceOnUse">
      <feOffset dx="7" dy="7"/>
      <feGaussianBlur result="blur" stdDeviation="5"/>
      <feFlood flood-color="#000" flood-opacity=".75"/>
      <feComposite in2="blur" operator="in"/>
      <feComposite in="SourceGraphic"/>
    </filter>
    <linearGradient id="linear-gradient" x1="56.399176" y1="216" x2="377.760824" y2="216" gradientUnits="userSpaceOnUse">
      <stop offset="0" stop-color="#607d8b"/>
      <stop offset=".25" stop-color="#8bc34a"/>
      <stop offset=".5" stop-color="#fbc02d"/>
      <stop offset=".75" stop-color="#ff9800"/>
      <stop offset="1" stop-color="#d32f2f"/>
    </linearGradient>
  </defs>
  <g class="cls-1">
    <path class="cls-2" d="m56.399176,220.044347c0-54.653342,14.790506-98.157402,44.378513-130.51218,29.58451-32.354778,69.662461-48.532167,120.237352-48.532167,47.073579,0,84.965397,15.815365,113.678951,47.439101,28.710056,31.627233,43.066833,72.798251,43.066833,123.516552,0,54.947158-14.722299,98.522923-44.1599,130.730793-29.441099,32.211368-68.791505,48.313554-118.051218,48.313554-48.094941,0-86.646096-15.811868-115.646471-47.439101-29.003873-31.623735-43.50406-72.798251-43.50406-123.516552Zm45.908807-3.497814c0,40.955903,10.45584,73.782011,31.371018,98.485322,20.91168,24.70331,48.204247,37.054966,81.870706,37.054966,36.142911,0,64.525921-11.839225,85.150781-35.524672,20.621362-23.681949,30.932917-56.801874,30.932917-99.359775,0-43.722673-10.092942-77.460837-30.277077-101.217989-20.187633-23.753654-47.843098-35.633979-82.964647-35.633979-34.540912,0-62.523423,12.536165-83.947533,37.601499-21.42411,25.068832-32.136165,57.932542-32.136165,98.594628Z"/>
  </g>
</svg>