<?xml version="1.0" encoding="UTF-8"?>
<svg id="Layer_1" data-name="Layer 1" xmlns="http://www.w3.org/2000/svg" xmlns:xlink="http://www.w3.org/1999/xlink" viewBox="0 0 434.16 432">
  <defs>
    <style>
      .cls-1 {
        filter: url(#drop-shadow-37);
      }

      .cls-2 {
        fill: url(#linear-gradient);
      }
    </style>
    <filter id="drop-shadow-37" filterUnits="userSpaceOnUse">
      <feOffset dx="7" dy="7"/>
      <feGaussianBlur result="blur" stdDeviation="5"/>
      <feFlood flood-color="#000" flood-opacity=".75"/>
      <feComposite in2="blur" operator="in"/>
      <feComposite in="SourceGraphic"/>
    </filter>
    <linearGradient id="linear-gradient" x1="50.931164" y1="216" x2="383.228836" y2="216" gradientUnits="userSpaceOnUse">
      <stop offset="0" stop-color="#607d8b"/>
      <stop offset=".25" stop-color="#8bc34a"/>
      <stop offset=".5" stop-color="#fbc02d"/>
      <stop offset=".75" stop-color="#ff9800"/>
      <stop offset="1" stop-color="#d32f2f"/>
    </linearGradient>
  </defs>
  <g class="cls-1">
    <path class="cls-2" d="m50.931164,201.678251c0-49.047085,14.051207-88.088565,42.160267-117.124439,28.105737-29.035874,66.180404-43.553812,114.227325-43.553812,44.720621,0,80.718428,14.193049,107.996743,42.57287,27.274993,28.38296,40.914151,65.330717,40.914151,110.846413,0,49.310762-13.986409,88.416592-41.952581,117.320628-6.645953,6.802242-13.778723,12.819731-21.391663,18.049327l90.34343,61.210762h-68.328709l-61.059697-42.769058c-15.784139,4.576682-33.022081,6.866592-51.713825,6.866592-45.69093,0-82.315118-14.18991-109.865918-42.57287-27.554123-28.379821-41.329523-65.330717-41.329523-110.846413Zm43.614069-3.139013c0,36.754709,9.933208,66.213565,29.802947,88.382848,19.866416,22.169283,45.794773,33.253924,77.778424,33.253924,34.336318,0,61.299782-10.624776,80.893715-31.880605,19.590609-21.252691,29.387575-50.975224,29.387575-89.167601,0-39.237668-9.58928-69.515022-28.764517-90.835202-19.17856-21.31704-45.450845-31.9787-78.816854-31.9787-32.814395,0-59.398209,11.250224-79.751441,33.744395-20.353232,22.497309-30.529849,51.98991-30.529849,88.480942Z"/>
  </g>
</svg>