<?xml version="1.0" encoding="UTF-8"?>
<svg id="Layer_1" data-name="Layer 1" xmlns="http://www.w3.org/2000/svg" xmlns:xlink="http://www.w3.org/1999/xlink" viewBox="0 0 434.16 432">
  <defs>
    <style>
      .cls-1 {
        filter: url(#drop-shadow-34);
      }

      .cls-2 {
        fill: url(#linear-gradient);
      }
    </style>
    <filter id="drop-shadow-34" filterUnits="userSpaceOnUse">
      <feOffset dx="7" dy="7"/>
      <feGaussianBlur result="blur" stdDeviation="5"/>
      <feFlood flood-color="#000" flood-opacity=".75"/>
      <feComposite in2="blur" operator="in"/>
      <feComposite in="SourceGraphic"/>
    </filter>
    <linearGradient id="linear-gradient" x1="95.913542" y1="216" x2="338.246458" y2="216" gradientUnits="userSpaceOnUse">
      <stop offset="0" stop-color="#607d8b"/>
      <stop offset=".25" stop-color="#8bc34a"/>
      <stop offset=".5" stop-color="#fbc02d"/>
      <stop offset=".75" stop-color="#ff9800"/>
      <stop offset="1" stop-color="#d32f2f"/>
    </linearGradient>
  </defs>
  <g class="cls-1">
    <path class="cls-2" d="m95.913542,321.699563c12.047408,9.038351,28.167638,16.471205,48.364763,22.298563,20.193052,5.830856,39.367899,8.744535,57.528613,8.744535,55.321143,0,82.983751-16.904934,82.983751-50.718301,0-9.47208-2.971124-17.998001-8.909298-25.577764-5.942247-7.576265-14.087892-14.281574-24.436933-20.11243-10.353114-5.827358-29.782512-14.790506-58.292267-26.889444-39.54303-16.904934-65.590764-32.607495-78.147275-47.111181-12.560583-14.500187-18.836802-31.077202-18.836802-49.734541,0-28.125921,13.149106-50.424485,39.455464-66.89569,26.302285-16.467708,59.477458-24.70331,99.529591-24.70331,39.200913,0,67.965219,4.081949,86.292919,12.242349v47.657714c-23.760844-14.134666-53.797908-21.205497-90.11119-21.205497-24.098889,0-43.743128,4.338164-58.928645,13.007495-15.18959,8.672829-22.782349,20.734166-22.782349,36.180512,0,13.700937,5.258013,24.850219,15.782186,33.447845,10.5201,8.601124,33.346231,20.331043,68.474322,35.196752,38.69181,15.887071,65.75775,31.774141,81.201891,47.657714,15.440069,15.887071,23.164176,33.741661,23.164176,53.560275,0,29.731418-12.560583,52.542411-37.673605,68.425984-25.117094,15.887071-59.990634,23.828857-104.620619,23.828857-15.6152,0-33.815624-1.858214-54.601272-5.574641-20.789721-3.716427-35.935528-8.341412-45.437422-13.881949v-49.843848Z"/>
  </g>
</svg>