<?xml version="1.0" encoding="UTF-8"?>
<svg id="Layer_1" data-name="Layer 1" xmlns="http://www.w3.org/2000/svg" xmlns:xlink="http://www.w3.org/1999/xlink" viewBox="0 0 434.16 432">
  <defs>
    <style>
      .cls-1 {
        filter: url(#drop-shadow-62);
      }

      .cls-2 {
        fill: url(#linear-gradient);
      }
    </style>
    <filter id="drop-shadow-62" filterUnits="userSpaceOnUse">
      <feOffset dx="7" dy="7"/>
      <feGaussianBlur result="blur" stdDeviation="5"/>
      <feFlood flood-color="#000" flood-opacity=".75"/>
      <feComposite in2="blur" operator="in"/>
      <feComposite in="SourceGraphic"/>
    </filter>
    <linearGradient id="linear-gradient" x1="330.843144" y1="386.350615" x2="92.224323" y2="101.975777" gradientUnits="userSpaceOnUse">
      <stop offset="0" stop-color="#d32f2f"/>
      <stop offset=".25" stop-color="#ff9800"/>
      <stop offset=".5" stop-color="#fbc02d"/>
      <stop offset=".75" stop-color="#8bc34a"/>
      <stop offset="1" stop-color="#607d8b"/>
    </linearGradient>
  </defs>
  <g class="cls-1">
    <path class="cls-2" d="m271.968889,137c0-18.517333-5.854222-33.072889-17.555556-43.666667-11.704889-10.590222-27.632-15.888889-47.777778-15.888889-14.222222,0-28.593778,3.632-43.111111,10.888889-14.520889,7.260444-28.076444,17.632-40.666667,31.111111v-42.222222c11.256889-11.701333,24.034667-20.666667,38.333333-26.888889,14.295111-6.222222,31.072889-9.333333,50.333333-9.333333,31.111111,0,56.145778,8.333333,75.111111,25,18.961778,16.666667,28.444444,39.222222,28.444444,67.666667,0,25.333333-5.816,47.260444-17.444444,65.777778-11.632,18.520889-31.520889,37.482667-59.666667,56.888889-28.743111,19.854222-47.965333,34.076444-57.666667,42.666667-9.704889,8.593778-16.482667,16.816-20.333333,24.666667-3.854222,7.854222-5.777778,17.409778-5.777778,28.666667h171.111111v38.666667H108.857778v-17.111111c0-19.850667,2.701333-36.701333,8.111111-50.555556,5.406222-13.850667,14.333333-27.333333,26.777778-40.444444,12.444444-13.111111,31.850667-28.850667,58.222222-47.222222,26.961778-18.961778,45.368-35.590222,55.222222-49.888889,9.850667-14.295111,14.777778-30.555556,14.777778-48.777778Z"/>
  </g>
</svg>