<?xml version="1.0" encoding="UTF-8"?>
<svg id="Layer_1" data-name="Layer 1" xmlns="http://www.w3.org/2000/svg" xmlns:xlink="http://www.w3.org/1999/xlink" viewBox="0 0 434.16 432">
  <defs>
    <style>
      .cls-1 {
        filter: url(#drop-shadow-61);
      }

      .cls-2 {
        fill: url(#linear-gradient);
      }
    </style>
    <filter id="drop-shadow-61" filterUnits="userSpaceOnUse">
      <feOffset dx="7" dy="7"/>
      <feGaussianBlur result="blur" stdDeviation="5"/>
      <feFlood flood-color="#000" flood-opacity=".75"/>
      <feComposite in2="blur" operator="in"/>
      <feComposite in="SourceGraphic"/>
    </filter>
    <linearGradient id="linear-gradient" x1="304.953803" y1="344.775779" x2="93.040917" y2="92.227836" gradientUnits="userSpaceOnUse">
      <stop offset="0" stop-color="#d32f2f"/>
      <stop offset=".25" stop-color="#ff9800"/>
      <stop offset=".5" stop-color="#fbc02d"/>
      <stop offset=".75" stop-color="#8bc34a"/>
      <stop offset="1" stop-color="#607d8b"/>
    </linearGradient>
  </defs>
  <g class="cls-1">
    <path class="cls-2" d="m118.048145,328.695191c23.173017,17.926296,49.331418,26.889444,78.482199,26.889444,23.316427,0,41.789257-5.718051,55.418488-17.161149,13.625734-11.4396,20.44035-26.780137,20.44035-46.018114,0-42.84822-30.681074-64.27233-92.036227-64.27233h-28.201124v-35.415365h26.889444c54.359525,0,81.542786-20.11243,81.542786-60.337289,0-37.164272-20.76827-55.746408-62.304809-55.746408-23.757152,0-46.12742,8.016989-67.114304,24.04747v-40.443473c22.151655-12.822986,48.019738-19.237976,77.607745-19.237976,28.856964,0,52.029981,7.542161,69.519051,22.626483,17.489069,15.084322,26.233604,34.650219,26.233604,58.697689,0,44.306808-22.59238,72.798251-67.770144,85.477826v.874453c24.484697,2.62336,43.83198,11.258588,58.041849,25.905684,14.209869,14.647096,21.314803,32.901312,21.314803,54.762648,0,30.462461-10.96827,55.018863-32.901312,73.672705-21.93654,18.657339-51.121424,27.982511-87.554653,27.982511-32.06446,0-57.932542-5.974266-77.607745-17.926296v-44.378513Z"/>
  </g>
</svg>