<?xml version="1.0" encoding="UTF-8"?>
<svg id="Layer_1" data-name="Layer 1" xmlns="http://www.w3.org/2000/svg" xmlns:xlink="http://www.w3.org/1999/xlink" viewBox="0 0 434.16 432">
  <defs>
    <style>
      .cls-1 {
        filter: url(#drop-shadow-58);
      }

      .cls-2 {
        fill: url(#linear-gradient);
      }
    </style>
    <filter id="drop-shadow-58" filterUnits="userSpaceOnUse">
      <feOffset dx="7" dy="7"/>
      <feGaussianBlur result="blur" stdDeviation="5"/>
      <feFlood flood-color="#000" flood-opacity=".75"/>
      <feComposite in2="blur" operator="in"/>
      <feComposite in="SourceGraphic"/>
    </filter>
    <linearGradient id="linear-gradient" x1="330.316281" y1="331.026491" x2="134.828224" y2="98.052897" gradientUnits="userSpaceOnUse">
      <stop offset="0" stop-color="#d32f2f"/>
      <stop offset=".25" stop-color="#ff9800"/>
      <stop offset=".5" stop-color="#fbc02d"/>
      <stop offset=".75" stop-color="#8bc34a"/>
      <stop offset="1" stop-color="#607d8b"/>
    </linearGradient>
  </defs>
  <g class="cls-1">
    <path class="cls-2" d="m304.853267,90.188007c-17.635978-9.034853-36.071205-13.554029-55.309182-13.554029-29.294191,0-52.83273,12.754778-70.612117,38.257339-17.782886,25.506059-26.817739,60.337289-27.108057,104.497189h1.093067c16.030481-31.043098,41.608245-46.564647,76.733292-46.564647,29.294191,0,52.685821,9.547283,70.174891,28.638351,17.489069,19.094566,26.233604,44.453716,26.233604,76.077452,0,33.085821-10.093816,60.265584-30.277951,81.542786-20.187633,21.2807-45.946408,31.917552-77.279825,31.917552-34.397502,0-61.396252-13.444722-80.996252-40.334166-19.603498-26.889444-29.403498-65.037477-29.403498-114.444097,0-59.753154,12.860587-107.229856,38.585259-142.426608,25.721174-35.196752,59.572142-52.795128,101.545909-52.795128,24.04747,0,42.919925,3.2792,56.620862,9.837601v39.350406Zm-150.405996,184.291068c0,22.298563,5.936665,41.393129,17.816989,57.276702,11.876827,15.887071,27.654591,23.828857,47.329794,23.828857,18.653841,0,33.809869-6.84872,45.47158-20.549656,11.658214-13.697439,17.489069-31.333417,17.489069-52.904435,0-23.316427-5.502936-41.461337-16.505309-54.434728-11.005871-12.969894-26.636727-19.45659-46.892567-19.45659-19.237976,0-34.834728,6.558401-46.78326,19.675203-11.95203,13.116802-17.926296,28.638351-17.926296,46.564647Z"/>
  </g>
</svg>