<?xml version="1.0" encoding="UTF-8"?>
<svg id="Layer_1" data-name="Layer 1" xmlns="http://www.w3.org/2000/svg" xmlns:xlink="http://www.w3.org/1999/xlink" viewBox="0 0 434.16 432">
  <defs>
    <style>
      .cls-1 {
        filter: url(#drop-shadow-56);
      }

      .cls-2 {
        fill: url(#linear-gradient);
      }
    </style>
    <filter id="drop-shadow-56" filterUnits="userSpaceOnUse">
      <feOffset dx="7" dy="7"/>
      <feGaussianBlur result="blur" stdDeviation="5"/>
      <feFlood flood-color="#000" flood-opacity=".75"/>
      <feComposite in2="blur" operator="in"/>
      <feComposite in="SourceGraphic"/>
    </filter>
    <linearGradient id="linear-gradient" x1="319.974548" y1="343.510801" x2="112.557154" y2="96.320377" gradientUnits="userSpaceOnUse">
      <stop offset="0" stop-color="#d32f2f"/>
      <stop offset=".25" stop-color="#ff9800"/>
      <stop offset=".5" stop-color="#fbc02d"/>
      <stop offset=".75" stop-color="#8bc34a"/>
      <stop offset="1" stop-color="#607d8b"/>
    </linearGradient>
  </defs>
  <g class="cls-1">
    <path class="cls-2" d="m107.158124,291.031251c0-19.5405,5.831-37.54975,17.5-54.03125,11.6655-16.478,26.6875-28.21875,45.0625-35.21875-14.7315-8.3125-26.397-18.956-35-31.9375-8.6065-12.978-12.90625-27.04975-12.90625-42.21875,0-16.0405,4.118625-30.69675,12.359375-43.96875,8.23725-13.2685,19.6875-23.69675,34.34375-31.28125,14.65625-7.581,30.806125-11.374997,48.453125-11.374997,17.7905,0,34.04975,3.756372,48.78125,11.265622,14.728,7.51275,26.17475,17.903375,34.34375,31.171875,8.1655,13.272,12.25,28,12.25,44.1875,0,14.875-4.193875,28.840875-12.578125,41.890625-8.38775,13.05325-20.015625,23.809625-34.890625,32.265625,18.375,7.147,33.32175,18.9595,44.84375,35.4375,11.5185,16.4815,17.28125,34.419,17.28125,53.8125,0,19.25-4.59375,36.497125-13.78125,51.734375-9.1875,15.24075-22.24075,27.090875-39.15625,35.546875-16.919,8.456-35.95025,12.6875-57.09375,12.6875-21,0-39.88775-4.2315-56.65625-12.6875-16.772-8.456-29.82525-20.34375-39.15625-35.65625-9.3345-15.3125-14-32.5185-14-51.625Zm42-1.96875c0,20.125,6.19675,36.24075,18.59375,48.34375,12.3935,12.1065,28.875,18.15625,49.4375,18.15625,20.125,0,36.565375-6.159125,49.328125-18.484375,12.75925-12.32175,19.140625-28.328125,19.140625-48.015625,0-18.6655-6.453125-34.377875-19.359375-47.140625-12.90625-12.75925-29.278375-19.140625-49.109375-19.140625-19.6875,0-35.95025,6.234375-48.78125,18.703125-12.8345,12.46875-19.25,28.328125-19.25,47.578125Zm12.25-157.937501c0,15.169,5.3935,28.184625,16.1875,39.046875,10.7905,10.86575,23.98725,16.296875,39.59375,16.296875,15.3125,0,28.546875-5.46875,39.703125-16.40625,11.15625-10.9375,16.734375-23.9155,16.734375-38.9375,0-15.3125-5.359375-28.2905-16.078125-38.9375-10.71875-10.6435-24.171875-15.96875-40.359375-15.96875-16.044,0-29.350125,5.215875-39.921875,15.640625-10.57525,10.42825-15.859375,23.515625-15.859375,39.265625Z"/>
  </g>
</svg>