<?xml version="1.0" encoding="UTF-8"?>
<svg id="Layer_1" data-name="Layer 1" xmlns="http://www.w3.org/2000/svg" xmlns:xlink="http://www.w3.org/1999/xlink" viewBox="0 0 434.16 432">
  <defs>
    <style>
      .cls-1 {
        filter: url(#drop-shadow-55);
      }

      .cls-2 {
        fill: url(#linear-gradient);
      }
    </style>
    <filter id="drop-shadow-55" filterUnits="userSpaceOnUse">
      <feOffset dx="7" dy="7"/>
      <feGaussianBlur result="blur" stdDeviation="5"/>
      <feFlood flood-color="#000" flood-opacity=".75"/>
      <feComposite in2="blur" operator="in"/>
      <feComposite in="SourceGraphic"/>
    </filter>
    <linearGradient id="linear-gradient" x1="300.996716" y1="335.660437" x2="104.336841" y2="101.290325" gradientUnits="userSpaceOnUse">
      <stop offset="0" stop-color="#d32f2f"/>
      <stop offset=".25" stop-color="#ff9800"/>
      <stop offset=".5" stop-color="#fbc02d"/>
      <stop offset=".75" stop-color="#8bc34a"/>
      <stop offset="1" stop-color="#607d8b"/>
    </linearGradient>
  </defs>
  <g class="cls-1">
    <path class="cls-2" d="m127.011293,339.407245c18.653841,10.787258,38.766271,16.177389,60.337289,16.177389,30.312055,0,53.812992-11.948532,70.502811-35.852592,16.686321-23.900562,25.03123-57.857339,25.03123-101.873829l-.437227.218613-.437227-.218613c-14.865709,28.276327-39.862836,42.410993-74.984385,42.410993-28.419738,0-51.958276-9.762399-70.612117-29.294191-18.657339-19.528295-27.982511-44.887445-27.982511-76.077452,0-33.229232,10.199625-60.518301,30.605871-81.870706,20.402748-21.348907,46.854966-32.026858,79.356652-32.026858,33.666458,0,59.971768,13.226109,78.919425,39.678326,18.94416,26.452217,28.419738,64.965771,28.419738,115.537164,0,62.523423-12.242349,110.618364-36.727046,144.284822-24.484697,33.666458-58.369769,50.499688-101.655215,50.499688-23.757152,0-43.869582-3.863335-60.337289-11.586508v-40.006246Zm24.70331-189.975016c0,22.73579,5.827358,40.771393,17.489069,54.106808,11.658214,13.335415,27.763898,20.003123,48.313554,20.003123,17.779388,0,32.716802-6.083573,44.81574-18.254216,12.09544-12.167146,18.144909-26.923548,18.144909-44.269207,0-24.337789-6.011868-44.48782-18.035603-60.446596s-27.873204-23.938164-47.548407-23.938164c-18.220112,0-33.304435,6.923923-45.252967,20.76827-11.95203,13.847845-17.926296,31.190006-17.926296,52.029981Z"/>
  </g>
</svg>