<?xml version="1.0" encoding="UTF-8"?>
<svg id="Layer_1" data-name="Layer 1" xmlns="http://www.w3.org/2000/svg" xmlns:xlink="http://www.w3.org/1999/xlink" viewBox="0 0 434.16 432">
  <defs>
    <style>
      .cls-1 {
        filter: url(#drop-shadow-20);
      }

      .cls-2 {
        fill: url(#linear-gradient);
      }
    </style>
    <filter id="drop-shadow-20" filterUnits="userSpaceOnUse">
      <feOffset dx="7" dy="7"/>
      <feGaussianBlur result="blur" stdDeviation="5"/>
      <feFlood flood-color="#000" flood-opacity=".75"/>
      <feComposite in2="blur" operator="in"/>
      <feComposite in="SourceGraphic"/>
    </filter>
    <linearGradient id="linear-gradient" x1="115.431482" y1="200" x2="318.728518" y2="200" gradientUnits="userSpaceOnUse">
      <stop offset="0" stop-color="#d32f2f"/>
      <stop offset=".25" stop-color="#ff9800"/>
      <stop offset=".5" stop-color="#fbc02d"/>
      <stop offset=".75" stop-color="#8bc34a"/>
      <stop offset="1" stop-color="#607d8b"/>
    </linearGradient>
  </defs>
  <g class="cls-1">
    <path class="cls-2" d="m318.728518,241.780097c0,80.478887-39.061343,120.719903-117.180883,120.719903-27.003509,0-50.464852-5.047429-70.387175-15.139141v-37.15971c24.247792,13.498609,47.512523,20.251059,69.797338,20.251059,52.821053,0,79.234725-27.789958,79.234725-83.363581v-23.00363h-.786449c-16.515426,27.396733-41.159589,41.091954-73.926195,41.091954-27.26461,0-49.088566-9.762976-65.471869-29.295221-16.386449-19.529099-24.576528-45.417423-24.576528-77.661827,0-37.092075,9.044162-66.485602,27.132486-88.180581,18.088324-21.691833,42.203993-32.539322,72.353297-32.539322,28.966485,0,50.461706,11.535632,64.488808,34.603751h.786449v-29.491833h38.535995v199.168179Zm-38.535995-111.085904c.128978-16.776528-5.505142-31.193708-16.908651-43.254688-11.403509-12.057834-25.430611-18.088324-42.075015-18.088324-20.973019,0-37.291833,7.701694-48.956443,23.101936-11.667756,15.403388-17.498488,36.539201-17.498488,63.407441,0,23.071264,5.63412,41.749425,16.908651,56.034483,11.271385,14.288203,26.213914,21.430732,44.827586,21.430732,18.74265,0,34.078403-6.813793,46.00726-20.447671,11.925711-13.630732,17.824077-30.932607,17.6951-51.905626v-30.278282Z"/>
  </g>
</svg>