<?xml version="1.0" encoding="UTF-8"?>
<svg id="Layer_1" data-name="Layer 1" xmlns="http://www.w3.org/2000/svg" xmlns:xlink="http://www.w3.org/1999/xlink" viewBox="0 0 434.16 432">
  <defs>
    <style>
      .cls-1 {
        filter: url(#drop-shadow-8);
      }

      .cls-2 {
        fill: url(#linear-gradient);
      }
    </style>
    <filter id="drop-shadow-8" filterUnits="userSpaceOnUse">
      <feOffset dx="7" dy="7"/>
      <feGaussianBlur result="blur" stdDeviation="5"/>
      <feFlood flood-color="#000" flood-opacity=".75"/>
      <feComposite in2="blur" operator="in"/>
      <feComposite in="SourceGraphic"/>
    </filter>
    <linearGradient id="linear-gradient" x1="136.445285" y1="245" x2="297.714715" y2="245" gradientUnits="userSpaceOnUse">
      <stop offset="0" stop-color="#d32f2f"/>
      <stop offset=".25" stop-color="#ff9800"/>
      <stop offset=".5" stop-color="#fbc02d"/>
      <stop offset=".75" stop-color="#8bc34a"/>
      <stop offset="1" stop-color="#607d8b"/>
    </linearGradient>
  </defs>
  <g class="cls-1">
    <path class="cls-2" d="m136.445285,312.789292c21.298791,15.402418,44.25734,23.100173,68.868739,23.100173,32.956822,0,49.438687-10.794473,49.438687-32.38342,0-9.208981-3.599309-16.803109-10.794473-22.777202-7.198618-5.970639-21.804836-13.060449-43.825561-21.264249-26.483592-10.649396-43.683938-21.19171-51.597582-31.62867-7.917098-10.433506-11.873921-23.062176-11.873921-37.887737,0-21.157168,8.959413-38.105354,26.878238-50.842832,17.918826-12.737478,39.97323-19.105354,66.170121-19.105354,20.29361,0,39.146805,3.528497,56.56304,10.578584v40.803109c-17.848014-11.512953-38.070812-17.271157-60.66494-17.271157-13.530225,0-24.540587,2.951641-33.031088,8.851468-8.493955,5.903282-12.737478,13.675302-12.737478,23.316062,0,9.499136,3.056131,16.913644,9.175302,22.236615,6.115717,5.326425,19.67962,12.164076,40.695164,20.509499,26.625216,9.930915,44.614853,20.222798,53.972366,30.872193,9.354059,10.65285,14.032815,23.822107,14.032815,39.507772,0,21.879102-8.959413,39.112263-26.878238,51.704663-17.918826,12.595855-41.126943,18.891192-69.624352,18.891192-24.756477,0-46.345423-4.678756-64.766839-14.032815v-43.177893Z"/>
  </g>
</svg>